<?xml version="1.0" encoding="UTF-8"?>
<svg width="16px" height="16px" viewBox="0 0 16 16" version="1.1" xmlns="http://www.w3.org/2000/svg" xmlns:xlink="http://www.w3.org/1999/xlink">
    <title>日期</title>
    <defs>
        <path d="M13.0020527,1 L11.0020527,1 L11.0020527,0.5 C11.0020527,0.223857625 10.7781951,0 10.5020527,0 C10.2259104,0 10.0020527,0.223857625 10.0020527,0.5 L10.0020527,1 L4.00205275,1 L4.00205275,0.5 C4.00205275,0.223857625 3.77819512,0 3.50205275,0 C3.22591037,0 3.00205275,0.223857625 3.00205275,0.5 L3.00205275,1 L1.00205275,1 C0.731749786,0.98211806 0.466872989,1.08171855 0.275322141,1.27326939 C0.0837712941,1.46482024 -0.0158291927,1.72969704 0.00205274696,2 L0.00205274696,13 C-0.0158291927,13.270303 0.0837712941,13.5351798 0.275322141,13.7267306 C0.466872989,13.9182815 0.731749786,14.0178819 1.00205275,14 L13.0020527,14 C13.2723557,14.0178819 13.5372325,13.9182815 13.7287834,13.7267306 C13.9203342,13.5351798 14.0199347,13.270303 14.0020527,13 L14.0020527,2 C14.0199347,1.72969704 13.9203342,1.46482024 13.7287834,1.27326939 C13.5372325,1.08171855 13.2723557,0.98211806 13.0020527,1 Z M13.0020527,13 L1.00205275,13 L1.00205275,6 L13.0020527,6 L13.0020527,13 Z M1.00205275,5 L1.00205275,2 L3.00205275,2 L3.00205275,2.5 C3.00205275,2.77614237 3.22591037,3 3.50205275,3 C3.77819512,3 4.00205275,2.77614237 4.00205275,2.5 L4.00205275,2 L10.0020527,2 L10.0020527,2.5 C10.0020527,2.77614237 10.2259104,3 10.5020527,3 C10.7781951,3 11.0020527,2.77614237 11.0020527,2.5 L11.0020527,2 L13.0020527,2 L13.0020527,5 L1.00205275,5 Z" id="path-1"></path>
    </defs>
    <g id="日期" stroke="none" stroke-width="1" fill="none" fill-rule="evenodd">
        <g id="编组-2备份-2">
            <rect id="矩形" x="0" y="0" width="16" height="16"></rect>
            <g id="Common/Calendar" transform="translate(1.000000, 1.000000)">
                <mask id="mask-2" fill="white">
                    <use xlink:href="#path-1"></use>
                </mask>
                <use id="color" fill="#333333" fill-rule="nonzero" xlink:href="#path-1"></use>
            </g>
        </g>
    </g>
</svg>